<mxfile host="Electron" modified="2023-08-04T12:27:09.428Z" agent="Mozilla/5.0 (Windows NT 10.0; Win64; x64) AppleWebKit/537.36 (KHTML, like Gecko) draw.io/21.6.5 Chrome/114.0.5735.243 Electron/25.3.1 Safari/537.36" etag="im28fIWHZvm5qX1pVsKO" version="21.6.5" type="device">
  <diagram name="Seite-1" id="g2UTd5wnk2x0COnEZCwa">
    <mxGraphModel dx="1634" dy="955" grid="1" gridSize="10" guides="1" tooltips="1" connect="1" arrows="1" fold="1" page="1" pageScale="1" pageWidth="827" pageHeight="1169" math="0" shadow="0">
      <root>
        <mxCell id="0" />
        <mxCell id="1" parent="0" />
        <mxCell id="-jo4XO1W560t6XSaX89A-6" style="edgeStyle=orthogonalEdgeStyle;rounded=0;orthogonalLoop=1;jettySize=auto;html=1;entryX=0.5;entryY=0;entryDx=0;entryDy=0;exitX=0.5;exitY=1;exitDx=0;exitDy=0;" parent="1" source="-jo4XO1W560t6XSaX89A-1" target="-jo4XO1W560t6XSaX89A-2" edge="1">
          <mxGeometry relative="1" as="geometry" />
        </mxCell>
        <mxCell id="-jo4XO1W560t6XSaX89A-7" style="edgeStyle=orthogonalEdgeStyle;rounded=0;orthogonalLoop=1;jettySize=auto;html=1;entryX=0.5;entryY=0;entryDx=0;entryDy=0;" parent="1" source="-jo4XO1W560t6XSaX89A-1" target="-jo4XO1W560t6XSaX89A-3" edge="1">
          <mxGeometry relative="1" as="geometry" />
        </mxCell>
        <mxCell id="-jo4XO1W560t6XSaX89A-8" style="edgeStyle=orthogonalEdgeStyle;rounded=0;orthogonalLoop=1;jettySize=auto;html=1;" parent="1" source="-jo4XO1W560t6XSaX89A-1" target="-jo4XO1W560t6XSaX89A-4" edge="1">
          <mxGeometry relative="1" as="geometry" />
        </mxCell>
        <mxCell id="-jo4XO1W560t6XSaX89A-9" style="edgeStyle=orthogonalEdgeStyle;rounded=0;orthogonalLoop=1;jettySize=auto;html=1;exitX=0.5;exitY=1;exitDx=0;exitDy=0;" parent="1" source="-jo4XO1W560t6XSaX89A-1" target="-jo4XO1W560t6XSaX89A-5" edge="1">
          <mxGeometry relative="1" as="geometry" />
        </mxCell>
        <mxCell id="-jo4XO1W560t6XSaX89A-1" value="" style="shape=image;verticalLabelPosition=bottom;labelBackgroundColor=default;verticalAlign=top;aspect=fixed;imageAspect=0;image=https://www.apache.org/logos/res/spark/spark.png;" parent="1" vertex="1">
          <mxGeometry x="317" y="80" width="192.31" height="100" as="geometry" />
        </mxCell>
        <mxCell id="-jo4XO1W560t6XSaX89A-2" value="&lt;font style=&quot;font-size: 16px;&quot;&gt;&lt;b&gt;MLlib&lt;/b&gt;&lt;br&gt;Machine Learning&lt;/font&gt;" style="rounded=0;whiteSpace=wrap;html=1;fillColor=#e1d5e7;strokeColor=#9673a6;" parent="1" vertex="1">
          <mxGeometry x="70" y="230" width="160" height="60" as="geometry" />
        </mxCell>
        <mxCell id="-jo4XO1W560t6XSaX89A-3" value="&lt;font style=&quot;font-size: 16px;&quot;&gt;&lt;b&gt;Streaming&lt;br&gt;&lt;/b&gt;Real-time analytics&lt;/font&gt;" style="rounded=0;whiteSpace=wrap;html=1;fillColor=#e1d5e7;strokeColor=#9673a6;" parent="1" vertex="1">
          <mxGeometry x="242.31" y="230" width="160" height="60" as="geometry" />
        </mxCell>
        <mxCell id="-jo4XO1W560t6XSaX89A-4" value="&lt;font style=&quot;font-size: 16px;&quot;&gt;&lt;b&gt;SQL&lt;/b&gt;&lt;br&gt;Interactive Queries&lt;br&gt;&lt;/font&gt;" style="rounded=0;whiteSpace=wrap;html=1;fillColor=#e1d5e7;strokeColor=#9673a6;" parent="1" vertex="1">
          <mxGeometry x="410" y="230" width="160" height="60" as="geometry" />
        </mxCell>
        <mxCell id="-jo4XO1W560t6XSaX89A-5" value="&lt;font style=&quot;font-size: 16px;&quot;&gt;&lt;b&gt;GraphX&lt;br&gt;&lt;/b&gt;Graph processing&lt;br&gt;&lt;/font&gt;" style="rounded=0;whiteSpace=wrap;html=1;fillColor=#e1d5e7;strokeColor=#9673a6;" parent="1" vertex="1">
          <mxGeometry x="580" y="230" width="160" height="60" as="geometry" />
        </mxCell>
      </root>
    </mxGraphModel>
  </diagram>
</mxfile>
